<svg id="visual" viewBox="0 0 960 540" width="960" height="540" xmlns="http://www.w3.org/2000/svg" xmlns:xlink="http://www.w3.org/1999/xlink" version="1.1"><rect x="0" y="0" width="960" height="540" fill="#001220"></rect><path d="M0 350L22.8 357C45.7 364 91.3 378 137 377.8C182.7 377.7 228.3 363.3 274 351C319.7 338.7 365.3 328.3 411.2 332.8C457 337.3 503 356.7 548.8 359.8C594.7 363 640.3 350 686 346.8C731.7 343.7 777.3 350.3 823 351.5C868.7 352.7 914.3 348.3 937.2 346.2L960 344L960 541L937.2 541C914.3 541 868.7 541 823 541C777.3 541 731.7 541 686 541C640.3 541 594.7 541 548.8 541C503 541 457 541 411.2 541C365.3 541 319.7 541 274 541C228.3 541 182.7 541 137 541C91.3 541 45.7 541 22.8 541L0 541Z" fill="#c62368"></path><path d="M0 397L22.8 400.3C45.7 403.7 91.3 410.3 137 405C182.7 399.7 228.3 382.3 274 383.7C319.7 385 365.3 405 411.2 408.7C457 412.3 503 399.7 548.8 388.3C594.7 377 640.3 367 686 367.7C731.7 368.3 777.3 379.7 823 380.7C868.7 381.7 914.3 372.3 937.2 367.7L960 363L960 541L937.2 541C914.3 541 868.7 541 823 541C777.3 541 731.7 541 686 541C640.3 541 594.7 541 548.8 541C503 541 457 541 411.2 541C365.3 541 319.7 541 274 541C228.3 541 182.7 541 137 541C91.3 541 45.7 541 22.8 541L0 541Z" fill="#e95667"></path><path d="M0 424L22.8 421C45.7 418 91.3 412 137 412.3C182.7 412.7 228.3 419.3 274 425C319.7 430.7 365.3 435.3 411.2 435.8C457 436.3 503 432.7 548.8 427.8C594.7 423 640.3 417 686 415.8C731.7 414.7 777.3 418.3 823 418C868.7 417.7 914.3 413.3 937.2 411.2L960 409L960 541L937.2 541C914.3 541 868.7 541 823 541C777.3 541 731.7 541 686 541C640.3 541 594.7 541 548.8 541C503 541 457 541 411.2 541C365.3 541 319.7 541 274 541C228.3 541 182.7 541 137 541C91.3 541 45.7 541 22.8 541L0 541Z" fill="#fa7268"></path><path d="M0 450L22.8 456.2C45.7 462.3 91.3 474.7 137 478C182.7 481.3 228.3 475.7 274 470C319.7 464.3 365.3 458.7 411.2 458.3C457 458 503 463 548.8 462.8C594.7 462.7 640.3 457.3 686 455.3C731.7 453.3 777.3 454.7 823 454.5C868.7 454.3 914.3 452.7 937.2 451.8L960 451L960 541L937.2 541C914.3 541 868.7 541 823 541C777.3 541 731.7 541 686 541C640.3 541 594.7 541 548.8 541C503 541 457 541 411.2 541C365.3 541 319.7 541 274 541C228.3 541 182.7 541 137 541C91.3 541 45.7 541 22.8 541L0 541Z" fill="#e95667"></path><path d="M0 497L22.8 495.8C45.7 494.7 91.3 492.3 137 492C182.7 491.7 228.3 493.3 274 495.2C319.7 497 365.3 499 411.2 497.7C457 496.3 503 491.7 548.8 491.2C594.7 490.7 640.3 494.3 686 493.8C731.7 493.3 777.3 488.7 823 488.5C868.7 488.3 914.3 492.7 937.2 494.8L960 497L960 541L937.2 541C914.3 541 868.7 541 823 541C777.3 541 731.7 541 686 541C640.3 541 594.7 541 548.8 541C503 541 457 541 411.2 541C365.3 541 319.7 541 274 541C228.3 541 182.7 541 137 541C91.3 541 45.7 541 22.8 541L0 541Z" fill="#c62368"></path></svg>